<?xml version="1.0" standalone="no"?>
<!DOCTYPE svg PUBLIC "-//W3C//DTD SVG 20010904//EN"
 "http://www.w3.org/TR/2001/REC-SVG-20010904/DTD/svg10.dtd">
<svg version="1.0" xmlns="http://www.w3.org/2000/svg"
 width="512.000000pt" height="512.000000pt" viewBox="0 0 512.000000 512.000000"
 preserveAspectRatio="xMidYMid meet">

<g transform="translate(0.000000,512.000000) scale(0.100000,-0.100000)"
fill="#424242" stroke="none">
<path d="M507 4889 c-97 -23 -190 -101 -235 -197 l-27 -57 0 -420 0 -420 33
-67 c37 -77 90 -128 172 -167 l55 -26 1508 -3 1507 -2 0 -200 0 -200 -1507 -2
-1508 -3 -57 -27 c-73 -34 -142 -103 -176 -176 l-27 -57 0 -1150 0 -1150 33
-67 c37 -77 90 -128 172 -167 l55 -26 1260 0 1260 0 55 26 c82 39 135 90 172
167 l33 67 0 310 0 310 -27 57 c-34 73 -103 142 -176 176 l-57 27 -717 3 -718
3 0 229 0 230 965 0 964 0 3 -673 3 -672 33 -67 c37 -77 90 -128 172 -167 l55
-26 395 0 395 0 55 26 c82 39 135 90 172 167 l33 67 0 2035 0 2035 -27 57
c-34 73 -103 142 -176 176 l-57 27 -2015 2 c-1154 0 -2031 -3 -2053 -8z"/>
</g>
</svg>
